<svg width="81" height="15" viewBox="0 0 81 15" fill="none" xmlns="http://www.w3.org/2000/svg">
<path d="M2.185 14H4.769V5.735H7.144V3.74H4.769V3.17C4.769 2.885 4.86717 2.64117 5.0635 2.4385C5.25983 2.2295 5.56067 2.125 5.966 2.125H7.144V0.0349997H5.871C5.624 0.0349997 5.32633 0.041333 4.978 0.0539995C4.62967 0.0603324 4.26867 0.129999 3.895 0.262999C3.52767 0.389666 3.18567 0.630332 2.869 0.984999C2.62833 1.251 2.4605 1.54867 2.3655 1.878C2.2705 2.20733 2.21667 2.53667 2.204 2.866C2.19133 3.189 2.185 3.48033 2.185 3.74H0.57V5.735H2.185V14ZM12.905 14.285C13.931 14.285 14.8335 14.057 15.6125 13.601C16.3978 13.1387 17.009 12.5022 17.446 11.6915C17.8893 10.8745 18.111 9.934 18.111 8.87C18.111 7.81233 17.8925 6.87817 17.4555 6.0675C17.0185 5.2505 16.4073 4.61083 15.622 4.1485C14.843 3.68617 13.9373 3.455 12.905 3.455C11.8917 3.455 10.9955 3.683 10.2165 4.139C9.43751 4.595 8.82634 5.2315 8.38301 6.0485C7.93967 6.85917 7.71801 7.79967 7.71801 8.87C7.71801 9.92767 7.93334 10.865 8.36401 11.682C8.80101 12.4927 9.40901 13.1292 10.188 13.5915C10.967 14.0538 11.8727 14.285 12.905 14.285ZM12.905 11.872C12.1007 11.872 11.4895 11.6028 11.0715 11.0645C10.6598 10.5198 10.454 9.78833 10.454 8.87C10.454 7.977 10.6503 7.255 11.043 6.704C11.442 6.14667 12.0627 5.868 12.905 5.868C13.722 5.868 14.3363 6.14033 14.748 6.685C15.166 7.22967 15.375 7.958 15.375 8.87C15.375 9.75033 15.1692 10.4723 14.7575 11.036C14.3522 11.5933 13.7347 11.872 12.905 11.872ZM20.3901 14H22.9741V0.0349997H20.3901V14ZM26.0122 2.315H28.5962V0.0349997H26.0122V2.315ZM26.0122 14H28.5962V3.74H26.0122V14ZM36.0613 14.285C37.0873 14.285 37.9898 14.057 38.7688 13.601C39.5541 13.1387 40.1653 12.5022 40.6023 11.6915C41.0456 10.8745 41.2673 9.934 41.2673 8.87C41.2673 7.81233 41.0488 6.87817 40.6118 6.0675C40.1748 5.2505 39.5636 4.61083 38.7783 4.1485C37.9993 3.68617 37.0936 3.455 36.0613 3.455C35.0479 3.455 34.1518 3.683 33.3728 4.139C32.5938 4.595 31.9826 5.2315 31.5393 6.0485C31.0959 6.85917 30.8743 7.79967 30.8743 8.87C30.8743 9.92767 31.0896 10.865 31.5203 11.682C31.9573 12.4927 32.5653 13.1292 33.3443 13.5915C34.1233 14.0538 35.0289 14.285 36.0613 14.285ZM36.0613 11.872C35.2569 11.872 34.6458 11.6028 34.2278 11.0645C33.8161 10.5198 33.6103 9.78833 33.6103 8.87C33.6103 7.977 33.8066 7.255 34.1993 6.704C34.5983 6.14667 35.2189 5.868 36.0613 5.868C36.8783 5.868 37.4926 6.14033 37.9043 6.685C38.3223 7.22967 38.5313 7.958 38.5313 8.87C38.5313 9.75033 38.3254 10.4723 37.9138 11.036C37.5084 11.5933 36.8909 11.872 36.0613 11.872ZM43.3374 14H45.6174V13.411C45.9784 13.6897 46.39 13.905 46.8524 14.057C47.3147 14.209 47.8277 14.285 48.3914 14.285C49.335 14.285 50.1615 14.0475 50.8709 13.5725C51.5802 13.0975 52.1312 12.4515 52.5239 11.6345C52.9229 10.8175 53.1224 9.896 53.1224 8.87C53.1224 7.825 52.9197 6.89717 52.5144 6.0865C52.1154 5.2695 51.5517 4.62667 50.8234 4.158C50.095 3.68933 49.24 3.455 48.2584 3.455C47.8087 3.455 47.3875 3.50883 46.9949 3.6165C46.6085 3.72417 46.257 3.87933 45.9404 4.082V0.319999H43.3374V14ZM47.9734 11.986C47.112 11.986 46.504 11.701 46.1494 11.131C45.7947 10.5547 45.6174 9.801 45.6174 8.87C45.6174 7.939 45.7915 7.1885 46.1399 6.6185C46.4945 6.04217 47.074 5.754 47.8784 5.754C48.4547 5.754 48.9265 5.8965 49.2939 6.1815C49.6675 6.46017 49.943 6.837 50.1204 7.312C50.2977 7.78067 50.3864 8.3 50.3864 8.87C50.3864 9.44633 50.3009 9.972 50.1299 10.447C49.9589 10.9157 49.696 11.2893 49.3414 11.568C48.9867 11.8467 48.5307 11.986 47.9734 11.986ZM59.8298 14.285C60.8558 14.285 61.7583 14.057 62.5373 13.601C63.3226 13.1387 63.9338 12.5022 64.3708 11.6915C64.8141 10.8745 65.0358 9.934 65.0358 8.87C65.0358 7.81233 64.8173 6.87817 64.3803 6.0675C63.9433 5.2505 63.3321 4.61083 62.5468 4.1485C61.7678 3.68617 60.8621 3.455 59.8298 3.455C58.8165 3.455 57.9203 3.683 57.1413 4.139C56.3623 4.595 55.7511 5.2315 55.3078 6.0485C54.8645 6.85917 54.6428 7.79967 54.6428 8.87C54.6428 9.92767 54.8581 10.865 55.2888 11.682C55.7258 12.4927 56.3338 13.1292 57.1128 13.5915C57.8918 14.0538 58.7975 14.285 59.8298 14.285ZM59.8298 11.872C59.0255 11.872 58.4143 11.6028 57.9963 11.0645C57.5846 10.5198 57.3788 9.78833 57.3788 8.87C57.3788 7.977 57.5751 7.255 57.9678 6.704C58.3668 6.14667 58.9875 5.868 59.8298 5.868C60.6468 5.868 61.2611 6.14033 61.6728 6.685C62.0908 7.22967 62.2998 7.958 62.2998 8.87C62.2998 9.75033 62.094 10.4723 61.6823 11.036C61.277 11.5933 60.6595 11.872 59.8298 11.872ZM65.6138 14H68.6538L70.7818 10.846L72.8908 14H75.9308L72.2448 8.813L75.8358 3.74H72.7958L70.7818 6.78L68.7298 3.74H65.6898L69.2808 8.813L65.6138 14ZM77.8779 14H80.4619V11.416H77.8779V14Z" fill="#15141F"/>
</svg>
