<svg width="81" height="15" viewBox="0 0 81 15" fill="none" xmlns="http://www.w3.org/2000/svg">
<path d="M2.18501 14.211H4.76901V5.94597H7.14401V3.95097H4.76901V3.38097C4.76901 3.09597 4.86717 2.85214 5.06351 2.64947C5.25984 2.44047 5.56067 2.33597 5.96601 2.33597H7.14401V0.245972H5.87101C5.62401 0.245972 5.32634 0.252305 4.97801 0.264971C4.62967 0.271304 4.26867 0.340971 3.89501 0.473971C3.52767 0.600637 3.18567 0.841304 2.86901 1.19597C2.62834 1.46197 2.46051 1.75964 2.36551 2.08897C2.27051 2.4183 2.21667 2.74764 2.20401 3.07697C2.19134 3.39997 2.18501 3.6913 2.18501 3.95097H0.570007V5.94597H2.18501V14.211Z" fill="white"/>
<path d="M12.905 14.496C13.931 14.496 14.8335 14.268 15.6125 13.812C16.3978 13.3496 17.009 12.7131 17.446 11.9025C17.8893 11.0855 18.111 10.145 18.111 9.08097C18.111 8.02331 17.8925 7.08914 17.4555 6.27847C17.0185 5.46147 16.4073 4.8218 15.622 4.35947C14.843 3.89714 13.9373 3.66597 12.905 3.66597C11.8917 3.66597 10.9955 3.89397 10.2165 4.34997C9.43752 4.80597 8.82635 5.44247 8.38302 6.25947C7.93968 7.07014 7.71802 8.01064 7.71802 9.08097C7.71802 10.1386 7.93335 11.076 8.36402 11.893C8.80102 12.7036 9.40902 13.3401 10.188 13.8025C10.967 14.2648 11.8727 14.496 12.905 14.496ZM12.905 12.083C12.1007 12.083 11.4895 11.8138 11.0715 11.2755C10.6598 10.7308 10.454 9.99931 10.454 9.08097C10.454 8.18797 10.6503 7.46597 11.043 6.91497C11.442 6.35764 12.0627 6.07897 12.905 6.07897C13.722 6.07897 14.3363 6.3513 14.748 6.89597C15.166 7.44064 15.375 8.16897 15.375 9.08097C15.375 9.96131 15.1692 10.6833 14.7575 11.247C14.3522 11.8043 13.7347 12.083 12.905 12.083Z" fill="white"/>
<path d="M20.3901 14.211H22.9741V0.245972H20.3901V14.211Z" fill="white"/>
<path d="M26.0122 2.52597H28.5962V0.245972H26.0122V2.52597ZM26.0122 14.211H28.5962V3.95097H26.0122V14.211Z" fill="white"/>
<path d="M36.0613 14.496C37.0873 14.496 37.9898 14.268 38.7688 13.812C39.5541 13.3496 40.1653 12.7131 40.6023 11.9025C41.0456 11.0855 41.2673 10.145 41.2673 9.08097C41.2673 8.02331 41.0488 7.08914 40.6118 6.27847C40.1748 5.46147 39.5636 4.8218 38.7783 4.35947C37.9993 3.89714 37.0936 3.66597 36.0613 3.66597C35.0479 3.66597 34.1518 3.89397 33.3728 4.34997C32.5938 4.80597 31.9826 5.44247 31.5393 6.25947C31.0959 7.07014 30.8743 8.01064 30.8743 9.08097C30.8743 10.1386 31.0896 11.076 31.5203 11.893C31.9573 12.7036 32.5653 13.3401 33.3443 13.8025C34.1233 14.2648 35.0289 14.496 36.0613 14.496ZM36.0613 12.083C35.2569 12.083 34.6458 11.8138 34.2278 11.2755C33.8161 10.7308 33.6103 9.99931 33.6103 9.08097C33.6103 8.18797 33.8066 7.46597 34.1993 6.91497C34.5983 6.35764 35.2189 6.07897 36.0613 6.07897C36.8783 6.07897 37.4926 6.3513 37.9043 6.89597C38.3223 7.44064 38.5313 8.16897 38.5313 9.08097C38.5313 9.96131 38.3254 10.6833 37.9138 11.247C37.5084 11.8043 36.8909 12.083 36.0613 12.083Z" fill="white"/>
<path d="M43.3374 14.211H45.6174V13.622C45.9784 13.9006 46.39 14.116 46.8524 14.268C47.3147 14.42 47.8277 14.496 48.3914 14.496C49.335 14.496 50.1615 14.2585 50.8709 13.7835C51.5802 13.3085 52.1312 12.6625 52.5239 11.8455C52.9229 11.0285 53.1224 10.107 53.1224 9.08097C53.1224 8.03597 52.9197 7.10814 52.5144 6.29747C52.1154 5.48047 51.5517 4.83764 50.8234 4.36897C50.095 3.90031 49.24 3.66597 48.2584 3.66597C47.8087 3.66597 47.3875 3.71981 46.9949 3.82747C46.6085 3.93514 46.257 4.0903 45.9404 4.29297V0.530972H43.3374V14.211ZM47.9734 12.197C47.112 12.197 46.504 11.912 46.1494 11.342C45.7947 10.7656 45.6174 10.012 45.6174 9.08097C45.6174 8.14997 45.7915 7.39947 46.1399 6.82947C46.4945 6.25314 47.074 5.96497 47.8784 5.96497C48.4547 5.96497 48.9265 6.10747 49.2939 6.39247C49.6675 6.67114 49.943 7.04797 50.1204 7.52297C50.2977 7.99164 50.3864 8.51097 50.3864 9.08097C50.3864 9.65731 50.3009 10.183 50.1299 10.658C49.9589 11.1266 49.696 11.5003 49.3414 11.779C48.9867 12.0576 48.5307 12.197 47.9734 12.197Z" fill="white"/>
<path d="M59.8298 14.496C60.8558 14.496 61.7583 14.268 62.5373 13.812C63.3227 13.3496 63.9338 12.7131 64.3708 11.9025C64.8142 11.0855 65.0358 10.145 65.0358 9.08097C65.0358 8.02331 64.8173 7.08914 64.3803 6.27847C63.9433 5.46147 63.3322 4.8218 62.5468 4.35947C61.7678 3.89714 60.8622 3.66597 59.8298 3.66597C58.8165 3.66597 57.9203 3.89397 57.1413 4.34997C56.3623 4.80597 55.7512 5.44247 55.3078 6.25947C54.8645 7.07014 54.6428 8.01064 54.6428 9.08097C54.6428 10.1386 54.8582 11.076 55.2888 11.893C55.7258 12.7036 56.3338 13.3401 57.1128 13.8025C57.8918 14.2648 58.7975 14.496 59.8298 14.496ZM59.8298 12.083C59.0255 12.083 58.4143 11.8138 57.9963 11.2755C57.5847 10.7308 57.3788 9.99931 57.3788 9.08097C57.3788 8.18797 57.5752 7.46597 57.9678 6.91497C58.3668 6.35764 58.9875 6.07897 59.8298 6.07897C60.6468 6.07897 61.2612 6.3513 61.6728 6.89597C62.0908 7.44064 62.2998 8.16897 62.2998 9.08097C62.2998 9.96131 62.094 10.6833 61.6823 11.247C61.277 11.8043 60.6595 12.083 59.8298 12.083Z" fill="white"/>
<path d="M65.6138 14.211H68.6538L70.7818 11.057L72.8908 14.211H75.9308L72.2448 9.02397L75.8358 3.95097H72.7958L70.7818 6.99097L68.7298 3.95097H65.6898L69.2808 9.02397L65.6138 14.211Z" fill="white"/>
<path d="M77.8779 14.211H80.4619V11.627H77.8779V14.211Z" fill="white"/>
</svg>
