<svg width="27" height="26" viewBox="0 0 27 26" fill="none" xmlns="http://www.w3.org/2000/svg">
<path d="M13.5015 1.0869e-06C6.04189 -0.00290148 0 5.80804 0 12.9803C0 18.6519 3.77958 23.4731 9.04324 25.2436C9.7521 25.4149 9.6435 24.9301 9.6435 24.5993V22.3498C5.55022 22.8113 5.38431 20.2048 5.10982 19.7694C4.5548 18.858 3.24265 18.6258 3.63479 18.1904C4.56686 17.7289 5.51704 18.3065 6.61803 19.871C7.41437 21.0059 8.96782 20.8143 9.75511 20.6256C9.92705 19.9435 10.2951 19.334 10.8018 18.8609C6.56072 18.1294 4.7931 15.639 4.7931 12.6784C4.7931 11.2416 5.28477 9.92097 6.25003 8.85573C5.63468 7.09968 6.30734 5.59615 6.39783 5.37265C8.15037 5.22172 9.97229 6.58012 10.1141 6.68752C11.1095 6.42919 12.2467 6.29277 13.5196 6.29277C14.7986 6.29277 15.9388 6.43499 16.9432 6.69622C17.2841 6.4466 18.9733 5.27977 20.6022 5.422C20.6896 5.64549 21.3472 7.11419 20.7681 8.84702C21.7454 9.91517 22.2431 11.2474 22.2431 12.6871C22.2431 15.6535 20.4634 18.1468 16.2103 18.8667C16.5746 19.2114 16.8638 19.6226 17.0611 20.0761C17.2585 20.5296 17.3599 21.0164 17.3595 21.508V24.7734C17.3836 25.0346 17.3595 25.293 17.812 25.293C23.1541 23.5601 27 18.7041 27 12.9832C27 5.80804 20.9551 1.0869e-06 13.5015 1.0869e-06Z" fill="white"/>
</svg>
